<svg id="Layer_1" data-name="Layer 1" xmlns="http://www.w3.org/2000/svg" xmlns:xlink="http://www.w3.org/1999/xlink" viewBox="0 0 440.38 322.05"><defs><style>.cls-1,.cls-4{fill:#4a6d89;}.cls-1,.cls-3{stroke:#ebeea7;}.cls-2{font-size:110.97px;fill:#231f20;font-family:Ayuthaya;}.cls-3{fill:none;}</style></defs><image width="416" height="416" transform="translate(323.98) scale(0.24)" xlink:href="getty4logo2.jpg"/><image width="485" height="356" transform="translate(323.98 236.61) scale(0.24)" xlink:href="getty4logo.jpg"/><path class="cls-1" d="M10.9,102.05,9.32,93q25.46,2.3,45.48-.28a83.39,83.39,0,0,0,15.78-3.55c5-1.65,8.56-3.58,10.86-5.79S84.7,79,84.32,76.75q-.67-3.85-6.69-6.52T56.06,65.42L45.12,64,34.06,62.5Q4.93,58.39,3,47,1.5,38.66,13,31.36T50.73,20.69s1.27-.43,12.1-.24l.71,5.64L50.82,28.23c-8.72,1.47-15.69,3.12-20.76,6S22.72,40,23.25,43.08s3.06,5.28,7.59,6.74a94.93,94.93,0,0,0,16.9,3.46l8.36,1.21,10.35,1.56,8.87,1.2q27.3,4.09,29.25,15.34,1.5,8.59-10.83,16.45T51.91,100.68q-9.36,1.2-18.06,1.56T10.9,102.05Z" transform="translate(-2.29 92.88)"/><text class="cls-2" transform="matrix(1.85, -0.32, 0.17, 0.99, 278.07, 187.89)">S</text><polyline class="cls-3" points="91.04 122.8 61.06 118.72 60.42 113.21 88.37 99.84"/><circle class="cls-4" cx="94.36" cy="110.63" r="13.17"/><path class="cls-3" d="M77,13.4c-4.62,1.91-7.33,5.22-6.85,8.37s4,5.48,8.87,6h0" transform="translate(-2.29 92.88)"/></svg>